<?xml version="1.0" standalone="no"?>
<!DOCTYPE svg PUBLIC "-//W3C//DTD SVG 20010904//EN"
 "http://www.w3.org/TR/2001/REC-SVG-20010904/DTD/svg10.dtd">
<svg version="1.0" xmlns="http://www.w3.org/2000/svg"
 width="465.000000pt" height="112.000000pt" viewBox="0 0 465.000000 112.000000"
 preserveAspectRatio="xMidYMid meet">
<g transform="translate(0.000000,112.000000) scale(0.100000,-0.100000)"
fill="#000000" stroke="none">
<path d="M2500 870 l0 -80 90 0 90 0 0 80 0 80 -90 0 -90 0 0 -80z"/>
<path d="M2830 510 l0 -440 89 0 89 0 4 213 c3 178 6 217 21 244 24 44 54 63
103 63 100 0 104 -12 104 -295 l0 -225 96 0 97 0 -5 264 -4 264 -30 48 c-41
67 -95 94 -190 94 -86 0 -118 -10 -161 -53 l-33 -31 0 147 0 147 -90 0 -90 0
0 -440z"/>
<path d="M193 724 c-53 -19 -118 -89 -133 -144 -14 -52 -4 -122 22 -155 34
-43 83 -63 253 -100 81 -18 115 -37 115 -65 0 -31 -39 -50 -103 -50 -73 0
-116 21 -124 60 l-5 30 -94 0 -93 0 5 -32 c18 -104 72 -168 161 -194 81 -24
263 -16 318 13 80 43 115 98 115 184 0 110 -58 160 -231 198 -167 36 -195 55
-149 101 15 15 33 20 74 20 60 0 102 -25 108 -63 3 -21 9 -22 91 -25 l87 -3 0
27 c0 86 -61 169 -145 198 -61 20 -213 20 -272 0z"/>
<path d="M1675 726 c-17 -7 -43 -28 -58 -45 l-27 -33 0 41 0 41 -85 0 -85 0 0
-330 0 -330 89 0 90 0 3 236 3 236 28 24 c37 32 107 34 135 3 29 -30 32 -60
32 -290 l0 -209 89 0 90 0 3 236 3 236 28 24 c39 33 99 33 132 -1 l25 -24 0
-236 0 -235 89 0 88 0 8 194 c10 287 -1 369 -58 424 -43 41 -75 52 -155 52
-76 0 -137 -23 -169 -63 l-20 -26 -22 30 c-13 17 -38 37 -57 45 -42 18 -159
18 -199 0z"/>
<path d="M3699 727 c-83 -31 -130 -91 -145 -184 l-7 -43 86 0 c80 0 86 1 92
23 15 48 45 67 105 67 65 0 100 -19 100 -55 0 -36 -33 -52 -148 -68 -164 -24
-232 -71 -248 -173 -10 -70 3 -130 39 -171 42 -47 82 -63 162 -63 76 0 117 15
168 60 l37 32 0 -25 c0 -54 5 -57 106 -57 85 0 94 2 94 19 0 10 -7 24 -15 31
-12 10 -15 48 -15 224 0 116 -5 229 -10 250 -12 55 -39 86 -96 115 -42 22 -65
26 -159 28 -74 2 -122 -1 -146 -10z m231 -384 c0 -78 -58 -133 -138 -133 -56
0 -82 21 -82 65 0 50 20 62 155 94 64 15 65 14 65 -26z"/>
<path d="M4494 721 c-17 -10 -43 -34 -57 -52 l-27 -34 0 48 0 47 -85 0 -85 0
0 -330 0 -330 89 0 89 0 4 202 c2 143 7 210 16 226 23 40 71 62 135 62 l57 0
0 90 0 90 -52 0 c-34 0 -64 -7 -84 -19z"/>
<path d="M685 713 c3 -10 56 -159 117 -330 l111 -313 92 0 92 0 110 307 c61
170 114 318 117 331 7 22 6 22 -88 22 l-95 0 -19 -62 c-10 -35 -38 -134 -63
-220 -24 -87 -47 -158 -50 -158 -3 0 -25 71 -49 158 -24 86 -52 185 -62 220
l-19 62 -101 0 c-91 0 -100 -2 -93 -17z"/>
<path d="M2500 400 l0 -330 90 0 90 0 0 330 0 330 -90 0 -90 0 0 -330z"/>
</g>
</svg>
